<?xml version="1.0" encoding="UTF-8" standalone="no"?><!DOCTYPE svg PUBLIC "-//W3C//DTD SVG 1.1//EN" "http://www.w3.org/Graphics/SVG/1.1/DTD/svg11.dtd"><svg width="100%" height="100%" viewBox="0 0 1920 1080" version="1.1" xmlns="http://www.w3.org/2000/svg" xmlns:xlink="http://www.w3.org/1999/xlink" xml:space="preserve" xmlns:serif="http://www.serif.com/" style="fill-rule:evenodd;clip-rule:evenodd;stroke-linejoin:round;stroke-miterlimit:2;"><rect id="boeing" x="0" y="0" width="1920" height="1080" style="fill:none;"/><g id="boeing1" serif:id="boeing"><g><path d="M453.482,575.814c24.181,-51.921 6.588,-114.361 -41.143,-146.02c18.639,-19.155 38.824,-38.137 60.126,-56.261c-24.853,14.775 -48.44,31.582 -70.519,50.248c-16.602,-8.656 -35.051,-13.178 -53.774,-13.178c-63.8,0 -116.301,52.501 -116.301,116.301c0,27.804 9.971,54.707 28.091,75.795c-22.246,48.187 -25.768,86.84 -6.528,99.895c21.044,14.001 66.74,-11.423 94.484,-52.739c0,0 -42.432,38.223 -65.709,29.462c-14.345,-5.411 -14.345,-27.4 -2.577,-58.838c45.859,33.644 110.005,28.957 150.487,-10.994l4.123,7.73c50.678,-4.122 201.938,-8.16 201.938,-8.16c-0.344,-7.129 -100.497,-0.257 -182.698,-33.241Zm-207.692,-49.045c0.059,-56.126 46.26,-102.277 102.386,-102.277c14.607,-0 29.046,3.126 42.346,9.167c-50.209,43.917 -92.132,96.488 -123.774,155.211c-13.634,-17.823 -21.004,-39.661 -20.958,-62.101Zm102.3,102.3c-22.963,0.044 -45.279,-7.678 -63.304,-21.903c20.271,-45.696 61.5,-107.025 117.761,-166.979c43.524,27.407 59.953,83.592 38.051,130.13c-17.757,-7.969 -34.16,-18.663 -48.616,-31.695l30.836,57.893c-19.291,20.76 -46.389,32.565 -74.728,32.554Z" style="fill:#fff;fill-rule:nonzero;"/><path d="M1147.16,516.118l18.897,-25.167l-65.967,-0l16.234,-21.56l66.053,0l18.983,-25.167l-131.762,0l-90.619,120.252l131.762,0l18.897,-25.167l-65.967,0l17.436,-23.191l66.053,-0Z" style="fill:#fff;fill-rule:nonzero;"/><path d="M1238.64,444.224l-90.619,120.252l65.795,0l90.533,-120.252l-65.709,0Z" style="fill:#fff;fill-rule:nonzero;"/><path d="M1457.67,444.224l-45.953,60.985l-14.087,-60.985l-51.365,0l-90.618,120.252l43.462,0l45.524,-60.383l14.001,60.383l51.88,0l90.619,-120.252l-43.463,0Z" style="fill:#fff;fill-rule:nonzero;"/><path d="M1672.58,444.224l-105.65,0c-17.386,-0.02 -33.798,8.17 -44.236,22.075l-54.542,72.409c-2.129,2.786 -3.277,6.2 -3.264,9.706c-0.001,8.826 7.236,16.101 16.062,16.148l105.65,0c17.413,0.034 33.857,-8.156 44.321,-22.075l13.142,-17.179l15.289,0l19.069,-25.768l-80.912,0l-25.769,33.928c-2.71,3.626 -6.983,5.762 -11.51,5.755l-18.639,0c-2.309,0 -4.209,-1.9 -4.209,-4.208c-0.007,-0.904 0.297,-1.784 0.859,-2.491l42.948,-57.55c2.701,-3.636 6.98,-5.775 11.509,-5.755l18.64,0c2.308,0 4.208,1.9 4.208,4.209c-0.024,0.899 -0.324,1.769 -0.859,2.491l-7.043,9.363l65.623,-0l11.596,-15.461c2.118,-2.792 3.265,-6.202 3.265,-9.707c-0,-8.811 -7.251,-16.062 -16.063,-16.062c-0.028,0 -0.057,0 -0.086,0l0.601,0.172Z" style="fill:#fff;fill-rule:nonzero;"/><path d="M1015.66,460.372c-0,-8.811 -7.251,-16.062 -16.062,-16.062l-105.65,0c-17.413,-0.034 -33.858,8.157 -44.322,22.075l-54.543,72.409c-2.064,2.782 -3.178,6.156 -3.178,9.62c-0,8.827 7.236,16.101 16.062,16.148l105.65,0c17.413,0.034 33.858,-8.156 44.322,-22.075l54.543,-72.409c2.092,-2.8 3.209,-6.21 3.178,-9.706Zm-73.44,15.719l-42.947,57.463c-2.701,3.636 -6.98,5.776 -11.51,5.755l-18.982,0c-2.293,-0.023 -4.167,-1.916 -4.167,-4.208c0,-0.896 0.286,-1.769 0.817,-2.492l42.947,-57.549c2.728,-3.604 6.989,-5.735 11.51,-5.755l18.639,0c2.309,0 4.209,1.9 4.209,4.209c-0.024,0.899 -0.324,1.769 -0.859,2.491l0.343,0.086Z" style="fill:#fff;fill-rule:nonzero;"/><path d="M767.169,507.271c12.764,-2.895 24.093,-10.234 31.952,-20.701l12.541,-16.578c2.117,-2.792 3.264,-6.202 3.264,-9.706c0,-8.811 -7.251,-16.062 -16.062,-16.062c-0.029,-0 -0.058,0 -0.086,0l-133.308,0l-90.619,120.252l137.946,0c17.413,0.034 33.858,-8.156 44.322,-22.075l12.798,-17.178c1.689,-2.221 2.596,-4.941 2.577,-7.731c-0.007,-4.094 -1.952,-7.953 -5.24,-10.393l-0.085,0.172Zm-60.986,15.632l-8.159,10.823c-2.711,3.625 -6.984,5.762 -11.51,5.755l-26.885,0l17.179,-23.191l25.768,-0c2.309,-0 4.209,1.899 4.209,4.208c0,0.903 -0.302,1.781 -0.859,2.491l0.257,-0.086Zm35.217,-46.726l-6.957,9.191c-2.738,3.582 -7.002,5.682 -11.51,5.669l-26.885,-0l16.234,-21.56l25.768,0c2.309,0 4.209,1.9 4.209,4.209c-0.024,0.899 -0.324,1.768 -0.859,2.491Z" style="fill:#fff;fill-rule:nonzero;"/></g></g></svg>