<?xml version="1.0" encoding="UTF-8" standalone="no"?><!DOCTYPE svg PUBLIC "-//W3C//DTD SVG 1.1//EN" "http://www.w3.org/Graphics/SVG/1.1/DTD/svg11.dtd"><svg width="100%" height="100%" viewBox="0 0 1920 1080" version="1.1" xmlns="http://www.w3.org/2000/svg" xmlns:xlink="http://www.w3.org/1999/xlink" xml:space="preserve" xmlns:serif="http://www.serif.com/" style="fill-rule:evenodd;clip-rule:evenodd;stroke-linejoin:round;stroke-miterlimit:2;"><rect id="google" x="0" y="0" width="1920" height="1080" style="fill:none;"/><g id="google1" serif:id="google"><g><path d="M903.559,546.768c-0,37.095 -29.02,64.43 -64.633,64.43c-35.614,-0 -64.633,-27.335 -64.633,-64.43c-0,-37.356 29.019,-64.429 64.633,-64.429c35.613,-0 64.633,27.073 64.633,64.429Zm-28.294,0c0,-23.18 -16.819,-39.041 -36.339,-39.041c-19.521,0 -36.34,15.861 -36.34,39.041c-0,22.949 16.819,39.042 36.34,39.042c19.52,-0 36.339,-16.122 36.339,-39.042Z" style="fill:#fff;fill-rule:nonzero;"/><path d="M1042.99,546.768c-0,37.095 -29.02,64.43 -64.633,64.43c-35.614,-0 -64.633,-27.335 -64.633,-64.43c-0,-37.327 29.019,-64.429 64.633,-64.429c35.613,-0 64.633,27.073 64.633,64.429Zm-28.294,0c0,-23.18 -16.819,-39.041 -36.339,-39.041c-19.521,0 -36.34,15.861 -36.34,39.041c-0,22.949 16.819,39.042 36.34,39.042c19.52,-0 36.339,-16.122 36.339,-39.042Z" style="fill:#fff;fill-rule:nonzero;"/><path d="M1176.62,486.231l-0,115.671c-0,47.582 -28.061,67.015 -61.234,67.015c-31.228,0 -50.022,-20.885 -57.11,-37.966l24.633,-10.254c4.387,10.486 15.135,22.861 32.448,22.861c21.234,0 34.393,-13.101 34.393,-37.763l0,-9.267l-0.988,0c-6.332,7.815 -18.533,14.641 -33.928,14.641c-32.215,-0 -61.728,-28.061 -61.728,-64.168c-0,-36.369 29.513,-64.662 61.728,-64.662c15.366,-0 27.567,6.826 33.928,14.408l0.988,-0l0,-10.487l26.87,0l-0,-0.029Zm-24.866,60.77c0,-22.687 -15.134,-39.274 -34.393,-39.274c-19.521,0 -35.875,16.587 -35.875,39.274c0,22.454 16.354,38.809 35.875,38.809c19.259,-0 34.393,-16.355 34.393,-38.809Z" style="fill:#fff;fill-rule:nonzero;"/><rect x="1193.32" y="418.432" width="27.596" height="188.816" style="fill:#fff;fill-rule:nonzero;"/><path d="M1328.45,567.974l21.96,14.64c-7.087,10.487 -24.168,28.555 -53.681,28.555c-36.601,-0 -63.936,-28.293 -63.936,-64.43c-0,-38.315 27.567,-64.429 60.769,-64.429c33.435,-0 49.79,26.608 55.135,40.987l2.933,7.32l-86.128,35.672c6.594,12.927 16.848,19.521 31.227,19.521c14.408,-0 24.4,-7.088 31.721,-17.836Zm-67.596,-23.181l57.574,-23.907c-3.166,-8.046 -12.694,-13.653 -23.907,-13.653c-14.379,0 -34.393,12.694 -33.667,37.56Z" style="fill:#fff;fill-rule:nonzero;"/><path d="M669.834,530.007l0,-27.334l92.113,-0c0.901,4.764 1.365,10.399 1.365,16.499c0,20.508 -5.606,45.868 -23.674,63.936c-17.575,18.301 -40.029,28.061 -69.775,28.061c-55.134,-0 -101.495,-44.909 -101.495,-100.043c-0,-55.134 46.361,-100.043 101.495,-100.043c30.501,-0 52.229,11.968 68.555,27.567l-19.289,19.288c-11.706,-10.98 -27.567,-19.521 -49.295,-19.521c-40.261,0 -71.75,32.447 -71.75,72.709c0,40.261 31.489,72.708 71.75,72.708c26.115,0 40.988,-10.486 50.516,-20.014c7.726,-7.727 12.81,-18.766 14.814,-33.842l-65.33,0.029Z" style="fill:#fff;fill-rule:nonzero;"/></g></g></svg>