<?xml version="1.0" encoding="UTF-8" standalone="no"?><!DOCTYPE svg PUBLIC "-//W3C//DTD SVG 1.1//EN" "http://www.w3.org/Graphics/SVG/1.1/DTD/svg11.dtd"><svg width="100%" height="100%" viewBox="0 0 1920 1080" version="1.1" xmlns="http://www.w3.org/2000/svg" xmlns:xlink="http://www.w3.org/1999/xlink" xml:space="preserve" xmlns:serif="http://www.serif.com/" style="fill-rule:evenodd;clip-rule:evenodd;stroke-linejoin:round;stroke-miterlimit:2;"><rect id="qualcomm" x="0" y="0" width="1920" height="1080" style="fill:none;"/><g id="qualcomm1" serif:id="qualcomm"><path d="M713.719,498.135c2.868,-0 5.327,2.322 5.327,5.327l-0,101.76c-0,2.869 -2.596,5.191 -5.327,5.191l-13.796,-0c-2.595,-0 -5.191,-2.049 -5.191,-4.918l0,-9.424c-6.966,10.244 -18.986,17.347 -36.469,17.347c-29.231,-0 -47.261,-19.396 -47.261,-48.217l0,-62.012c0,-2.869 2.595,-5.191 5.327,-5.191l13.796,0c2.868,0 5.19,2.322 5.19,5.191l0,58.051c0,18.713 9.835,31.143 29.231,31.143c18.986,-0 30.186,-12.84 30.186,-30.87l0,-58.324c0,-2.869 2.596,-5.191 5.191,-5.191l13.796,0m-203.521,-56.275c-47.261,-0 -85.37,36.743 -85.37,85.779c0,49.173 38.109,85.779 85.37,85.779c8.059,0 15.844,-1.093 23.22,-3.141l9.288,23.903c0.957,2.595 2.869,4.234 6.284,4.234l14.751,0c3.552,0 6.147,-2.322 4.508,-6.829l-12.02,-31.28c23.63,-14.888 39.338,-41.25 39.338,-72.803c0,-48.899 -38.109,-85.642 -85.369,-85.642m37.153,135.635l-10.791,-28.002c-0.956,-2.322 -2.869,-4.507 -6.966,-4.507l-14.069,-0c-3.552,-0 -6.283,2.322 -4.644,6.83l14.205,36.743c-4.644,1.229 -9.698,1.775 -14.888,1.775c-34.558,0 -59.144,-27.181 -59.144,-62.695c-0,-35.514 24.586,-62.695 59.144,-62.695c34.557,-0 59.144,27.181 59.144,62.695c-0,20.762 -8.332,38.519 -21.991,49.856m947.396,27.318c1.229,2.868 -0.273,5.6 -3.688,5.6l-15.435,0c-2.868,0 -5.19,-1.366 -6.146,-4.234l-28.548,-76.764l-28.957,76.764c-1.23,3.005 -3.278,4.234 -6.147,4.234l-13.796,0c-2.868,0 -4.917,-1.229 -6.146,-4.234l-29.231,-77.174l-28.82,77.174c-1.23,2.868 -3.279,4.234 -6.147,4.234l-14.479,0c-2.868,0 -4.917,-1.366 -6.146,-4.234l-28.548,-77.174l-29.504,77.174c-1.229,3.005 -3.278,4.234 -6.146,4.234l-13.796,0c-2.868,0 -4.917,-1.229 -6.146,-4.234l-28.821,-77.174l-28.821,77.174c-0.956,2.868 -3.278,4.234 -6.147,4.234l-15.025,0c-3.551,0 -4.917,-2.868 -3.688,-5.6l39.066,-102.17c1.229,-3.005 3.278,-4.508 6.146,-4.508l16.801,0c2.868,0 4.917,1.366 6.146,4.508l28.138,74.579l27.865,-74.579c1.229,-3.005 3.278,-4.508 6.146,-4.508l16.528,0c2.868,0 4.917,1.366 6.147,4.508l27.591,74.579l27.591,-74.579c1.23,-3.005 3.279,-4.508 6.147,-4.508l16.664,0c2.869,0 4.917,1.366 6.147,4.508l28.001,74.579l27.318,-74.579c1.23,-3.005 3.278,-4.508 6.147,-4.508l16.801,0c2.868,0 4.917,1.366 6.146,4.508l38.792,102.17m-647.306,-106.541l-13.795,-0c-2.869,-0 -5.327,2.322 -5.327,5.327l-0,9.288c-6.967,-10.517 -20.626,-18.03 -36.743,-18.03c-30.46,0 -56.549,24.04 -56.549,59.144c-0,35.514 26.225,59.417 56.412,59.417c16.391,0 29.64,-7.512 37.016,-18.03l0,9.835c0,2.868 2.595,5.19 5.327,5.19l13.796,0c2.868,0 5.19,-2.322 5.19,-5.19l0,-101.624c-0.136,-3.005 -2.458,-5.327 -5.327,-5.327m-53.27,92.745c-20.079,0 -34.421,-16.391 -34.421,-36.743c-0,-20.625 14.205,-36.47 34.421,-36.47c19.942,0 34.421,15.845 34.421,36.47c-0.137,20.489 -14.615,36.743 -34.421,36.743m217.863,3.552c3.005,3.688 0.41,6.556 -1.23,7.785c-9.561,7.24 -22.264,11.201 -36.06,11.201c-34.83,-0 -58.051,-25.543 -58.051,-59.144c0,-33.602 23.221,-59.417 58.051,-59.417c13.796,-0 26.362,3.961 36.06,11.2c1.64,1.229 3.962,3.688 1.23,7.786l-6.557,9.151c-2.595,3.552 -5.6,2.596 -8.195,0.957c-6.147,-3.688 -13.386,-6.83 -21.718,-6.83c-20.352,-0 -33.875,16.391 -33.875,37.153c0,20.762 13.523,37.016 33.875,37.016c8.469,-0 15.162,-3.278 21.308,-6.83c2.595,-1.365 5.327,-2.595 8.196,1.23l6.966,8.742Zm65.017,-99.439c-32.782,0 -58.871,25.679 -58.871,59.144c0,33.738 26.226,59.144 58.871,59.144c32.782,0 58.871,-25.542 58.871,-59.144c0.137,-33.328 -26.089,-59.144 -58.871,-59.144m0,95.751c-20.079,-0 -34.421,-16.118 -34.421,-36.47c0,-20.625 14.206,-36.47 34.421,-36.47c20.079,-0 34.421,15.845 34.421,36.47c0,20.352 -14.205,36.47 -34.421,36.47m-181.256,-146.016c3.005,-0 5.19,2.595 5.19,5.327l0,154.894c0,2.869 -2.049,5.327 -5.19,5.327l-13.796,0c-2.868,0 -5.327,-2.595 -5.327,-5.327l-0,-154.758c-0,-2.868 2.595,-5.327 5.327,-5.327l13.796,0" style="fill:#fff;fill-rule:nonzero;"/></g></svg>