<?xml version="1.0" encoding="UTF-8" standalone="no"?><!DOCTYPE svg PUBLIC "-//W3C//DTD SVG 1.1//EN" "http://www.w3.org/Graphics/SVG/1.1/DTD/svg11.dtd"><svg width="100%" height="100%" viewBox="0 0 1920 1080" version="1.1" xmlns="http://www.w3.org/2000/svg" xmlns:xlink="http://www.w3.org/1999/xlink" xml:space="preserve" xmlns:serif="http://www.serif.com/" style="fill-rule:evenodd;clip-rule:evenodd;stroke-linejoin:round;stroke-miterlimit:2;"><rect id="tfjs" x="0" y="0" width="1920" height="1080" style="fill:none;"/><g id="tfjs1" serif:id="tfjs"><g><g id="icon"><path d="M368.789,570.682c-18.434,10.524 -30.872,30.371 -30.872,53.1c0,1.263 0.039,2.518 0.114,3.762l-11.613,6.743l0,-248.41l106.079,60.608l0.141,54.969l-63.849,-36.884l0,27.76l31.831,18.19l0.175,47.799l-32.006,-18.518l0,30.881Z" style="fill:#fff;"/><path d="M210.806,446.485l106.078,-60.608l0,248.41l-42.37,-24.601l-0,-145.116l-63.849,36.884l0.141,-54.969Z" style="fill:#fff;"/><path d="M399.017,575.071c26.884,0 48.711,21.827 48.711,48.711c-0,26.884 -21.827,48.71 -48.711,48.71c-26.884,0 -48.711,-21.826 -48.711,-48.71c0,-26.884 21.827,-48.711 48.711,-48.711Zm26.938,58.594c-0,1.86 -0.703,3.355 -2.108,4.486c-1.405,1.13 -3.503,1.695 -6.292,1.695c-3.233,0 -5.716,-0.718 -7.449,-2.155c-1.733,-1.437 -2.599,-3.466 -2.599,-6.086l-8.02,-0c0,2.895 0.777,5.431 2.33,7.607c1.553,2.177 3.73,3.883 6.53,5.12c2.8,1.236 5.869,1.854 9.208,1.854c5.05,-0 9.05,-1.136 11.998,-3.408c2.947,-2.271 4.421,-5.33 4.421,-9.176c0,-2.367 -0.507,-4.432 -1.521,-6.197c-1.014,-1.764 -2.61,-3.328 -4.786,-4.691c-2.177,-1.363 -5.062,-2.578 -8.654,-3.645c-3.592,-1.068 -6.17,-2.166 -7.734,-3.297c-1.564,-1.131 -2.346,-2.541 -2.346,-4.232c0,-2.007 0.724,-3.571 2.171,-4.691c1.448,-1.12 3.482,-1.68 6.102,-1.68c2.811,0 4.972,0.682 6.482,2.045c1.511,1.363 2.267,3.249 2.267,5.658l7.988,-0c-0,-2.663 -0.719,-5.088 -2.156,-7.275c-1.437,-2.187 -3.413,-3.872 -5.927,-5.056c-2.515,-1.183 -5.378,-1.775 -8.59,-1.775c-4.84,0 -8.775,1.205 -11.808,3.614c-3.032,2.409 -4.548,5.473 -4.548,9.192c-0,4.248 2.102,7.692 6.308,10.333c2.197,1.374 5.156,2.621 8.875,3.741c3.719,1.12 6.292,2.229 7.718,3.328c1.427,1.099 2.14,2.663 2.14,4.691Zm-39.739,-34.265l0,32.332c0,2.514 -0.639,4.485 -1.917,5.911c-1.279,1.427 -2.996,2.14 -5.151,2.14c-2.303,-0 -4.063,-0.618 -5.278,-1.854c-1.215,-1.237 -1.822,-3.08 -1.822,-5.532l-7.988,0c-0,4.332 1.31,7.714 3.93,10.144c2.621,2.43 6.34,3.645 11.158,3.645c4.522,-0 8.162,-1.3 10.92,-3.899c2.757,-2.599 4.136,-6.107 4.136,-10.524l0,-32.363l-7.988,0Z" style="fill:#fff;"/></g><g id="text"><path d="M622.26,461.085l-46.099,0l-0,127.128l-25.487,0l0,-127.128l-45.693,0l0,-20.714l117.279,0l-0,20.714Z" style="fill:#fff;fill-rule:nonzero;"/><path d="M651.372,590.244c-15.637,0 -28.312,-4.925 -38.026,-14.774c-9.714,-9.849 -14.571,-22.965 -14.571,-39.347l-0,-3.046c-0,-10.966 2.115,-20.765 6.346,-29.396c4.231,-8.631 10.171,-15.349 17.82,-20.155c7.65,-4.807 16.179,-7.21 25.588,-7.21c14.961,0 26.519,4.773 34.676,14.317c8.157,9.545 12.236,23.05 12.236,40.515l-0,9.951l-71.789,-0c0.745,9.071 3.774,16.246 9.088,21.526c5.314,5.28 11.999,7.92 20.054,7.92c11.305,0 20.511,-4.569 27.619,-13.708l13.302,12.693c-4.4,6.566 -10.273,11.66 -17.618,15.282c-7.344,3.621 -15.586,5.432 -24.725,5.432Zm-2.944,-94.127c-6.77,-0 -12.236,2.369 -16.399,7.107c-4.163,4.739 -6.82,11.339 -7.971,19.801l47.013,-0l0,-1.828c-0.541,-8.259 -2.741,-14.503 -6.6,-18.734c-3.858,-4.231 -9.206,-6.346 -16.043,-6.346Z" style="fill:#fff;fill-rule:nonzero;"/><path d="M737.062,478.347l0.711,12.693c8.123,-9.816 18.785,-14.724 31.985,-14.724c22.881,0 34.524,13.099 34.93,39.296l0,72.601l-24.674,0l-0,-71.179c-0,-6.973 -1.506,-12.134 -4.519,-15.485c-3.012,-3.351 -7.937,-5.026 -14.774,-5.026c-9.951,-0 -17.363,4.501 -22.237,13.505l0,78.185l-24.674,0l-0,-109.866l23.252,0Z" style="fill:#fff;fill-rule:nonzero;"/><path d="M885.373,558.361c-0,-4.4 -1.811,-7.751 -5.433,-10.053c-3.621,-2.301 -9.629,-4.332 -18.023,-6.092c-8.394,-1.76 -15.4,-3.994 -21.019,-6.702c-12.32,-5.957 -18.48,-14.588 -18.48,-25.893c-0,-9.477 3.994,-17.397 11.981,-23.76c7.988,-6.363 18.142,-9.545 30.462,-9.545c13.133,0 23.744,3.25 31.833,9.748c8.09,6.499 12.134,14.926 12.134,25.284l-24.674,-0c0,-4.739 -1.76,-8.682 -5.28,-11.83c-3.52,-3.148 -8.191,-4.721 -14.013,-4.721c-5.415,-0 -9.832,1.252 -13.25,3.757c-3.419,2.504 -5.128,5.855 -5.128,10.052c-0,3.791 1.591,6.735 4.772,8.834c3.182,2.098 9.613,4.214 19.293,6.346c9.68,2.133 17.278,4.671 22.795,7.616c5.517,2.944 9.613,6.481 12.287,10.611c2.674,4.129 4.011,9.138 4.011,15.028c-0,9.883 -4.096,17.888 -12.287,24.014c-8.191,6.126 -18.92,9.189 -32.188,9.189c-9.003,0 -17.025,-1.625 -24.065,-4.874c-7.04,-3.249 -12.523,-7.717 -16.449,-13.403c-3.927,-5.686 -5.89,-11.813 -5.89,-18.379l23.964,0c0.338,5.822 2.538,10.307 6.6,13.454c4.061,3.148 9.443,4.722 16.145,4.722c6.498,-0 11.44,-1.236 14.825,-3.706c3.384,-2.471 5.077,-5.704 5.077,-9.697Z" style="fill:#fff;fill-rule:nonzero;"/><path d="M921.505,532.265c0,-10.763 2.133,-20.461 6.397,-29.091c4.265,-8.631 10.256,-15.265 17.973,-19.902c7.717,-4.637 16.585,-6.956 26.603,-6.956c14.825,0 26.858,4.773 36.098,14.317c9.24,9.545 14.232,22.204 14.977,37.976l0.102,5.788c-0,10.831 -2.082,20.511 -6.245,29.041c-4.163,8.529 -10.12,15.129 -17.871,19.8c-7.751,4.671 -16.703,7.006 -26.857,7.006c-15.502,0 -27.907,-5.161 -37.215,-15.485c-9.308,-10.323 -13.962,-24.082 -13.962,-41.276l0,-1.218Zm24.675,2.132c-0,11.305 2.335,20.156 7.006,26.553c4.671,6.397 11.169,9.595 19.496,9.595c8.326,0 14.807,-3.249 19.444,-9.747c4.637,-6.499 6.956,-16.01 6.956,-28.533c-0,-11.102 -2.386,-19.902 -7.159,-26.401c-4.772,-6.498 -11.254,-9.747 -19.445,-9.747c-8.055,-0 -14.452,3.198 -19.191,9.595c-4.738,6.397 -7.107,15.959 -7.107,28.685Z" style="fill:#fff;fill-rule:nonzero;"/><path d="M1097.47,500.889c-3.249,-0.542 -6.6,-0.812 -10.052,-0.812c-11.305,-0 -18.92,4.332 -22.846,12.997l-0,75.139l-24.675,0l0,-109.866l23.558,0l0.609,12.286c5.957,-9.544 14.215,-14.317 24.776,-14.317c3.52,0 6.43,0.474 8.732,1.422l-0.102,23.151Z" style="fill:#fff;fill-rule:nonzero;"/><path d="M1200.42,525.563l-59.502,0l-0,62.65l-25.69,0l0,-147.842l93.925,0l-0,20.714l-68.235,0l-0,43.967l59.502,0l0,20.511Z" style="fill:#fff;fill-rule:nonzero;"/><rect x="1222.83" y="441.674" width="24.674" height="146.539" style="fill:#fff;fill-rule:nonzero;"/><path d="M1267.66,532.265c0,-10.763 2.133,-20.461 6.397,-29.091c4.265,-8.631 10.256,-15.265 17.973,-19.902c7.717,-4.637 16.585,-6.956 26.604,-6.956c14.824,0 26.857,4.773 36.097,14.317c9.24,9.545 14.233,22.204 14.977,37.976l0.102,5.788c-0,10.831 -2.082,20.511 -6.245,29.041c-4.163,8.529 -10.12,15.129 -17.871,19.8c-7.751,4.671 -16.703,7.006 -26.857,7.006c-15.502,0 -27.907,-5.161 -37.215,-15.485c-9.308,-10.323 -13.962,-24.082 -13.962,-41.276l0,-1.218Zm24.675,2.132c-0,11.305 2.335,20.156 7.006,26.553c4.671,6.397 11.169,9.595 19.496,9.595c8.326,0 14.808,-3.249 19.445,-9.747c4.636,-6.499 6.955,-16.01 6.955,-28.533c-0,-11.102 -2.386,-19.902 -7.159,-26.401c-4.772,-6.498 -11.254,-9.747 -19.444,-9.747c-8.056,-0 -14.453,3.198 -19.192,9.595c-4.738,6.397 -7.107,15.959 -7.107,28.685Z" style="fill:#fff;fill-rule:nonzero;"/><path d="M1480.95,554.197l17.465,-75.85l24.065,0l-29.954,109.866l-20.308,0l-23.557,-75.444l-23.152,75.444l-20.308,0l-30.055,-109.866l24.065,0l17.769,75.038l22.542,-75.038l18.582,0l22.846,75.85Z" style="fill:#fff;fill-rule:nonzero;"/><path d="M1543.56,580.902c0,-2.369 0.762,-4.383 2.285,-6.041c1.523,-1.659 3.639,-2.488 6.346,-2.488c2.708,0 4.84,0.829 6.397,2.488c1.557,1.658 2.336,3.672 2.336,6.041c-0,2.37 -0.779,4.316 -2.336,5.839c-1.557,1.523 -3.689,2.285 -6.397,2.285c-2.707,-0 -4.823,-0.762 -6.346,-2.285c-1.523,-1.523 -2.285,-3.469 -2.285,-5.839Z" style="fill:#fff;fill-rule:nonzero;"/><path d="M1602.44,478.347l0,122.965c0,10.154 -2.437,17.905 -7.311,23.253c-4.874,5.347 -12.049,8.021 -21.526,8.021c-3.656,0 -7.21,-0.636 -10.662,-1.91l0.203,-9.97c2.979,0.88 6.025,1.32 9.139,1.32c12.049,0 18.074,-6.943 18.074,-20.83l-0,-122.849l12.083,0Zm-5.991,-39.905c2.64,-0 4.705,0.79 6.194,2.371c1.489,1.581 2.234,3.515 2.234,5.802c0,2.287 -0.745,4.205 -2.234,5.752c-1.489,1.548 -3.554,2.321 -6.194,2.321c-2.572,0 -4.586,-0.773 -6.041,-2.321c-1.456,-1.547 -2.183,-3.465 -2.183,-5.752c-0,-2.287 0.727,-4.221 2.183,-5.802c1.455,-1.581 3.469,-2.371 6.041,-2.371Z" style="fill:#fff;fill-rule:nonzero;"/><path d="M1697.15,560.29c-0,-6.025 -2.42,-10.865 -7.26,-14.52c-4.84,-3.656 -12.134,-6.516 -21.882,-8.581c-9.748,-2.064 -17.313,-4.433 -22.694,-7.107c-5.382,-2.674 -9.376,-5.94 -11.982,-9.799c-2.606,-3.858 -3.909,-8.529 -3.909,-14.012c-0,-8.665 3.621,-15.824 10.864,-21.476c7.244,-5.653 16.518,-8.479 27.822,-8.479c12.253,0 22.085,3.03 29.498,9.088c7.412,6.059 11.118,13.962 11.118,23.71l-12.184,-0c-0,-6.431 -2.691,-11.779 -8.073,-16.044c-5.382,-4.264 -12.168,-6.397 -20.359,-6.397c-7.988,0 -14.401,1.777 -19.242,5.331c-4.84,3.554 -7.26,8.174 -7.26,13.86c0,5.484 2.014,9.731 6.042,12.744c4.028,3.012 11.372,5.771 22.034,8.275c10.662,2.505 18.65,5.179 23.964,8.022c5.314,2.843 9.257,6.261 11.829,10.255c2.572,3.994 3.859,8.834 3.859,14.521c-0,9.274 -3.741,16.686 -11.221,22.237c-7.48,5.551 -17.244,8.326 -29.294,8.326c-12.794,0 -23.168,-3.097 -31.122,-9.291c-7.954,-6.194 -11.931,-14.029 -11.931,-23.506l12.185,-0c0.474,7.108 3.469,12.641 8.986,16.602c5.517,3.96 12.811,5.94 21.882,5.94c8.462,-0 15.299,-1.862 20.511,-5.585c5.213,-3.723 7.819,-8.428 7.819,-14.114Z" style="fill:#fff;fill-rule:nonzero;"/></g></g></g></svg>