<?xml version="1.0" encoding="UTF-8" standalone="no"?><!DOCTYPE svg PUBLIC "-//W3C//DTD SVG 1.1//EN" "http://www.w3.org/Graphics/SVG/1.1/DTD/svg11.dtd"><svg width="100%" height="100%" viewBox="0 0 1920 1080" version="1.1" xmlns="http://www.w3.org/2000/svg" xmlns:xlink="http://www.w3.org/1999/xlink" xml:space="preserve" xmlns:serif="http://www.serif.com/" style="fill-rule:evenodd;clip-rule:evenodd;stroke-linejoin:round;stroke-miterlimit:2;"><rect id="xmos" x="0" y="0" width="1920" height="1080" style="fill:none;"/><g id="xmos1" serif:id="xmos"><path d="M719.326,571.429c0,0.002 0,0.004 0,0.006c-7.382,11.42 -14.783,22.828 -22.148,34.253c-4.411,6.842 -8.782,13.712 -13.309,20.79l-53.108,-0l-0,-0.582c7.112,-10.187 14.247,-20.357 21.325,-30.562c13.683,-19.736 27.332,-39.494 40.992,-59.241l0.005,-0c-0.904,-3.018 -3.086,-5.258 -4.797,-7.763c-15.94,-23.358 -31.938,-46.664 -47.914,-69.988c-0.27,-0.391 -0.501,-0.812 -0.921,-1.497l54.202,-0c2.281,3.847 4.763,8.028 7.245,12.203c6.116,10.291 12.226,20.582 18.342,30.867c0.04,1.434 0.104,2.863 0.115,4.297c0.052,10.427 0.087,20.849 0.133,31.27c-0.041,-10.421 -0.081,-20.849 -0.127,-31.27c-0.006,-1.434 -0.075,-2.868 -0.115,-4.297c8.511,-14.431 17.023,-28.863 25.465,-43.179l54.33,-0c-4.677,6.841 -9.14,13.377 -13.609,19.914c-13.411,19.619 -26.823,39.239 -40.235,58.852c20.806,30.164 41.612,60.322 62.643,90.809l-53.177,-0c-11.714,-18.192 -23.525,-36.534 -35.337,-54.882Zm187.284,61.954c-11.293,-25.253 -22.592,-50.505 -33.885,-75.764c-6.484,-14.506 -12.957,-29.024 -19.436,-43.531c-0.305,-0.685 -0.633,-1.359 -1.307,-2.805c-7.383,38.879 -14.622,76.991 -21.861,115.091l-19.494,0c11.443,-59.754 22.857,-119.358 34.427,-179.757c20.64,47.781 40.974,94.849 61.602,142.595c20.692,-47.723 41.096,-94.785 61.822,-142.589c11.563,60.364 22.966,119.876 34.409,179.63l-19.505,0c-7.205,-37.939 -14.432,-76.005 -21.654,-114.06c-1.042,-0.04 -1.007,0.847 -1.249,1.388c-17.525,39.034 -35.032,78.079 -52.515,117.13c-0.375,0.835 -1.106,1.618 -0.789,2.672l-0.565,-0Zm186.184,-179.775c48.127,-0.103 88.174,39.397 88.583,86.769c0.426,49.503 -39.229,87.949 -86.418,89.015c-48.524,1.094 -90.316,-37.271 -90.431,-87.569c-0.109,-48.467 39.633,-88.111 88.266,-88.215Zm0.3,17.692c-38.13,-0.208 -69.21,31.017 -69.579,69.895c-0.351,37.473 30.977,69.722 67.379,70.523c38.129,0.841 70.955,-30.159 71.364,-69.348c0.414,-39.333 -30.43,-70.863 -69.164,-71.07Zm190.053,8.765c-5.171,3.328 -10.078,6.478 -15.105,9.715c-2.217,-3.311 -4.273,-6.531 -6.876,-9.358c-14.265,-15.486 -41.896,-10.648 -48.939,8.592c-3.398,9.277 -1.117,17.939 6.381,24.4c4.405,3.801 9.514,6.416 14.731,8.863c9.531,4.469 19.39,8.241 28.656,13.292c5.321,2.902 10.36,6.225 14.737,10.452c10.85,10.487 13.983,23.594 11.904,37.974c-3.012,20.807 -14.674,35.359 -34.479,42.149c-20.248,6.939 -39.229,3.697 -55.377,-11.097c-8.609,-7.89 -13.337,-18.049 -15.837,-29.682c6.162,-1.739 12.186,-3.432 18.411,-5.188c0.945,3.622 1.676,7.072 3.07,10.32c6.087,14.178 18.987,22.091 34.323,21.008c14.074,-0.996 26.686,-11.293 30.332,-24.769c3.466,-12.808 -0.847,-24.504 -11.956,-32.186c-7.855,-5.431 -16.712,-8.892 -25.379,-12.716c-6.928,-3.058 -13.746,-6.288 -20.162,-10.348c-13.919,-8.817 -21.095,-21.245 -19.735,-37.876c1.341,-16.442 10.02,-28.127 24.786,-35.055c21.008,-9.859 49.445,-6.006 64.666,18.296c0.605,0.973 1.14,1.987 1.848,3.214Z" style="fill:#fff;"/></g></svg>